<?xml version="1.0" standalone="no"?>
<!DOCTYPE svg PUBLIC "-//W3C//DTD SVG 20010904//EN"
 "http://www.w3.org/TR/2001/REC-SVG-20010904/DTD/svg10.dtd">
<svg version="1.0" xmlns="http://www.w3.org/2000/svg"
 width="300.000000pt" height="300.000000pt" viewBox="0 0 300.000000 300.000000"
 preserveAspectRatio="xMidYMid meet">
<metadata>
Created by potrace 1.10, written by Peter Selinger 2001-2011
</metadata>
<g transform="translate(0.000000,300.000000) scale(0.100000,-0.100000)"
fill="#000000" stroke="none">
<path d="M1898 1658 l-47 -41 -31 27 c-30 25 -36 26 -156 26 l-124 0 0 -170 0
-170 51 0 51 0 -4 55 c-4 52 -3 55 19 55 17 0 32 -15 59 -55 l37 -55 53 0 c30
0 54 3 54 8 -1 4 -14 23 -31 42 -16 19 -27 28 -24 19 3 -9 -1 -21 -9 -28 -12
-10 -20 -7 -43 20 -53 62 -63 69 -92 69 -34 0 -49 -15 -57 -59 -5 -24 -9 -29
-20 -20 -16 13 -18 213 -2 242 8 15 21 18 91 16 88 -1 157 -17 157 -35 0 -7
-10 -19 -23 -27 -21 -14 -24 -13 -35 4 -10 16 -24 19 -77 19 -61 0 -66 -2 -77
-26 -23 -51 38 -87 113 -67 39 10 39 10 39 -19 0 -23 14 -43 67 -94 37 -35 70
-64 72 -64 2 0 13 -7 23 -17 17 -15 18 -15 18 0 0 10 8 17 20 17 17 0 20 7 20
45 0 44 0 45 -33 45 -24 0 -45 10 -72 33 -46 40 -43 60 19 111 l43 35 36 -30
c21 -17 37 -39 37 -50 0 -19 -3 -18 -36 10 l-37 30 -33 -27 c-19 -15 -34 -29
-34 -32 0 -3 15 -17 34 -32 l35 -28 29 25 c37 31 44 31 36 1 -9 -39 14 -95 50
-117 26 -16 50 -19 153 -19 l122 0 -3 47 -2 47 -101 -3 c-86 -2 -103 0 -118
16 -16 16 -17 18 -3 21 16 3 17 26 3 94 -4 25 22 30 127 27 l92 -3 2 47 3 47
-120 0 c-121 0 -179 -14 -179 -42 0 -7 -12 -1 -27 13 -70 62 -63 61 -115 17z
m377 -27 c10 -17 -15 -26 -78 -28 -70 -2 -118 -24 -109 -51 2 -7 1 -20 -2 -29
-6 -14 -8 -14 -24 0 -9 9 -26 30 -36 48 l-19 32 27 -7 c22 -5 26 -3 24 10 -2
10 4 18 15 20 11 1 22 5 25 9 8 8 171 4 177 -4z m-507 -78 c3 -22 0 -23 -67
-23 -69 0 -71 1 -71 25 0 26 1 26 68 23 61 -3 67 -5 70 -25z m81 15 c0 -7 -4
-21 -7 -31 -7 -16 -10 -16 -27 -3 -20 15 -20 15 0 30 25 19 35 20 34 4z m229
-77 c6 -8 12 -24 12 -36 0 -12 9 -31 20 -43 18 -19 32 -22 95 -22 59 0 75 -3
75 -14 0 -12 -18 -15 -89 -14 -85 0 -91 2 -119 29 -27 26 -42 69 -42 123 0 16
2 17 18 5 9 -7 23 -20 30 -28z m-259 17 c11 -7 16 -19 13 -30 -2 -10 1 -25 8
-33 10 -12 10 -15 -3 -15 -23 0 -57 40 -57 67 0 26 11 29 39 11z"/>
<path d="M310 1500 l0 -170 164 0 163 0 -1 46 -2 46 -118 -1 c-106 -2 -117 0
-114 15 3 15 17 17 103 18 l100 1 0 45 0 45 -100 1 c-86 1 -100 3 -103 18 -3
15 8 17 114 15 l118 -1 2 46 1 46 -163 0 -164 0 0 -170z m272 134 c4 -3 5 -11
2 -18 -4 -10 -26 -14 -79 -14 -94 0 -115 -7 -115 -37 0 -32 25 -44 98 -46 38
-1 63 -7 66 -15 8 -20 -4 -24 -66 -24 -71 0 -98 -12 -98 -45 0 -30 42 -44 128
-41 52 2 62 0 60 -13 -3 -13 -22 -16 -103 -19 -55 -1 -106 1 -113 6 -18 12
-21 234 -2 257 11 13 32 15 114 14 56 -1 104 -3 108 -5z"/>
<path d="M665 1500 l0 -170 148 0 148 0 -3 47 -3 47 -97 -3 -98 -3 0 126 0
126 -47 0 -48 0 0 -170z m61 39 c1 -132 11 -143 124 -148 30 -2 57 -5 60 -7
12 -13 -31 -22 -104 -22 -113 0 -116 3 -116 138 0 59 3 110 7 114 18 18 28 -7
29 -75z"/>
<path d="M1121 1648 c-5 -13 -38 -89 -74 -170 l-65 -148 54 0 c49 0 54 2 60
25 6 24 9 25 95 25 86 0 89 -1 95 -25 6 -23 11 -25 60 -25 l53 0 -14 33 c-8
17 -40 93 -72 167 l-59 135 -62 3 c-57 3 -63 1 -71 -20z m106 -27 c10 -9 27
-36 37 -61 19 -47 52 -121 68 -154 15 -29 -12 -40 -37 -16 -18 16 -36 20 -101
20 -50 0 -87 -5 -99 -13 -11 -8 -28 -16 -37 -20 -15 -5 -16 -3 -3 34 26 73 83
198 98 214 16 17 50 16 74 -4z"/>
<path d="M1161 1564 c-13 -15 -26 -44 -28 -65 -5 -35 -3 -39 22 -49 64 -24
120 17 94 69 -15 29 -49 71 -59 71 -3 0 -17 -12 -29 -26z m60 -51 l18 -43 -49
0 -48 0 13 28 c8 15 19 41 26 57 8 21 13 25 16 15 3 -8 14 -34 24 -57z"/>
<path d="M1420 1500 l0 -170 50 0 50 0 0 170 0 170 -50 0 -50 0 0 -170z m68 6
c2 -74 0 -112 -9 -122 -22 -27 -29 5 -28 116 2 112 4 123 22 117 8 -2 13 -41
15 -111z"/>
<path d="M2418 1653 c-42 -26 -53 -58 -53 -153 0 -150 24 -170 204 -170 l121
0 0 110 0 110 -70 0 -70 0 0 -51 c0 -46 2 -50 22 -47 15 2 24 -3 26 -14 3 -15
-4 -18 -51 -18 -85 0 -87 2 -87 80 0 82 -1 82 130 79 l95 -2 3 47 3 46 -123 0
c-97 0 -129 -4 -150 -17z m215 -19 c3 -3 3 -12 0 -20 -4 -10 -19 -12 -61 -9
-65 6 -118 -8 -132 -35 -17 -32 -12 -125 8 -150 22 -27 90 -37 132 -20 24 10
30 19 30 41 0 16 -4 29 -10 29 -16 0 -11 37 6 44 34 13 51 -10 49 -66 -3 -86
-5 -88 -102 -88 -85 0 -135 16 -147 46 -8 21 -9 168 -1 187 13 32 56 46 141
47 44 0 83 -3 87 -6z"/>
</g>
</svg>
